<?xml version="1.0" encoding="iso-8859-1"?>
<!-- Generator: Adobe Illustrator 19.0.0, SVG Export Plug-In . SVG Version: 6.00 Build 0)  -->
<svg version="1.1" id="Layer_1" xmlns="http://www.w3.org/2000/svg" xmlns:xlink="http://www.w3.org/1999/xlink" x="0px" y="0px"
	 viewBox="0 0 392.923 392.923" style="enable-background:new 0 0 392.923 392.923;" xml:space="preserve">
<path style="fill:#FFC10D;" d="M26.567,101.14l63.741,63.741v-24.695c0-6.012,4.848-10.925,10.925-10.925h161.81V73.019H101.169
	c-6.012,0-10.925-4.848-10.925-10.925V37.399L26.567,101.14z"/>
<path style="fill:#56ACE0;" d="M366.348,291.718l-63.741-63.741v24.695c0,6.012-4.848,10.925-10.925,10.925H129.936v56.178h161.875
	c6.012,0,10.925,4.848,10.925,10.925v24.76L366.348,291.718z"/>
<g>
	<path style="fill:#194F82;" d="M389.556,284.025l-90.117-90.053c-7.176-6.723-19.006-2.263-18.618,7.758v40.21h-161.81
		c-6.012,0-10.925,4.848-10.925,10.925v78.028c0,6.012,4.848,10.925,10.925,10.925h161.875v40.21
		c-0.905,8.857,11.313,14.869,18.618,7.758l90.117-90.117C393.823,295.209,393.823,288.292,389.556,284.025z M302.607,355.459V330.7
		c0-6.012-4.848-10.925-10.925-10.925H129.936v-56.113h161.875c6.012,0,10.925-4.848,10.925-10.925v-24.76l63.741,63.741
		L302.607,355.459z"/>
	<path style="fill:#194F82;" d="M64.449,241.876c-6.012,0-10.925,4.848-10.925,10.925v78.028c0,6.012,4.848,10.925,10.925,10.925
		s10.925-4.848,10.925-10.925v-78.093C75.375,246.724,70.526,241.876,64.449,241.876z"/>
	<path style="fill:#194F82;" d="M112.094,191.193v-40.21h161.875c6.012,0,10.925-4.848,10.925-10.925V62.029
		c0-6.012-4.849-10.925-10.925-10.925H112.094v-40.21c0.905-8.857-11.313-14.869-18.618-7.758L3.358,93.447
		c-4.267,4.267-4.267,11.119,0,15.451l90.117,90.117C100.651,205.609,112.482,201.148,112.094,191.193z M101.169,129.197
		c-6.012,0-10.925,4.848-10.925,10.925v24.76L26.502,101.14l63.741-63.741v24.76c0,6.012,4.848,10.925,10.925,10.925h161.875v56.242
		H101.169V129.197z"/>
	<path style="fill:#194F82;" d="M328.466,150.983c6.012,0,10.925-4.848,10.925-10.925V62.029c0-6.012-4.848-10.925-10.925-10.925
		c-6.012,0-10.925,4.848-10.925,10.925v78.028C317.54,146.134,322.389,150.983,328.466,150.983z"/>
</g>
<g>
</g>
<g>
</g>
<g>
</g>
<g>
</g>
<g>
</g>
<g>
</g>
<g>
</g>
<g>
</g>
<g>
</g>
<g>
</g>
<g>
</g>
<g>
</g>
<g>
</g>
<g>
</g>
<g>
</g>
</svg>
