<?xml version="1.0" encoding="iso-8859-1"?>
<!-- Generator: Adobe Illustrator 19.0.0, SVG Export Plug-In . SVG Version: 6.00 Build 0)  -->
<svg version="1.1" id="Layer_1" xmlns="http://www.w3.org/2000/svg" xmlns:xlink="http://www.w3.org/1999/xlink" x="0px" y="0px"
	 viewBox="0 0 392.533 392.533" style="enable-background:new 0 0 392.533 392.533;" xml:space="preserve">
<path style="fill:#FFFFFF;" d="M359.822,90.149H95.418v18.554c0,6.012-4.848,10.925-10.925,10.925v153.406
	c6.012,0,10.925,4.848,10.925,10.925v18.554h264.404c6.012,0,10.925-4.848,10.925-10.925V101.01
	C370.747,94.998,365.834,90.149,359.822,90.149z"/>
<path style="fill:#FFC10D;" d="M84.428,119.564c-6.012,0-10.925-4.848-10.925-10.925V90.085H32.711
	c-6.012,0-10.925,4.848-10.925,10.925v190.448c0,6.012,4.848,10.925,10.925,10.925h40.857V283.83
	c0-6.012,4.848-10.925,10.925-10.925l0,0L84.428,119.564L84.428,119.564z"/>
<rect x="84.428" y="111.806" style="fill:#56ACE0;" width="264.533" height="168.598"/>
<g>
	<path style="fill:#194F82;" d="M290.974,193.325h-12.671c-4.719,0-8.469-3.879-8.469-8.469c0-4.719,3.879-8.469,8.469-8.469h32.065
		c6.012,0,10.925-4.848,10.925-10.925c0-6.012-4.849-10.925-10.925-10.925h-9.956v-3.879c0-6.012-4.848-10.925-10.925-10.925
		s-10.925,4.848-10.925,10.925v3.879h-0.323c-16.743,0-30.384,13.576-30.384,30.384c0,16.679,13.576,30.384,30.384,30.384h12.671
		c4.719,0,8.469,3.879,8.469,8.598c0,4.719-3.879,8.469-8.469,8.469H258.78c-6.012,0-10.925,4.848-10.925,10.925
		s4.848,10.925,10.925,10.925h19.717v3.879c0,6.012,4.848,10.925,10.925,10.925c6.077,0,10.925-4.848,10.925-10.925v-5.43
		c12.154-4.008,20.881-15.386,20.881-28.832C321.293,206.901,307.717,193.325,290.974,193.325z"/>
	<path style="fill:#194F82;" d="M182.691,150.594h-53.85c-6.012,0-10.925-4.848-10.925-10.925c0-6.012,4.848-10.925,10.925-10.925
		h53.85c6.012,0,10.925,4.848,10.925,10.925C193.616,145.745,188.703,150.594,182.691,150.594z"/>
	<path style="fill:#194F82;" d="M182.691,263.402h-53.85c-6.012,0-10.925-4.848-10.925-10.925c0-6.012,4.848-10.925,10.925-10.925
		h53.85c6.012,0,10.925,4.848,10.925,10.925S188.703,263.402,182.691,263.402z"/>
	<path style="fill:#194F82;" d="M216.695,206.966h-87.79c-6.012,0-10.925-4.848-10.925-10.925s4.848-10.925,10.925-10.925h87.855
		c6.012,0,10.925,4.848,10.925,10.925S222.707,206.966,216.695,206.966z"/>
	<path style="fill:#194F82;" d="M359.822,68.299H32.711C14.675,68.299,0,82.974,0,101.075v190.448
		c0,18.036,14.675,32.711,32.711,32.711h327.111c18.036,0,32.711-14.675,32.711-32.711V101.01
		C392.533,82.974,377.859,68.299,359.822,68.299z M359.822,302.319H95.418v-18.554c0-6.012-4.848-10.925-10.925-10.925
		c-6.077,0-10.925,4.848-10.925,10.925v18.554H32.711c-6.012,0-10.925-4.848-10.925-10.925V101.01
		c0-6.012,4.848-10.925,10.925-10.925h40.857v18.554c0,6.012,4.848,10.925,10.925,10.925c6.077,0,10.925-4.848,10.925-10.925V90.085
		h264.404c6.012,0,10.925,4.848,10.925,10.925v190.384h0.065C370.747,297.471,365.899,302.319,359.822,302.319z"/>
	<path style="fill:#194F82;" d="M84.428,142.061c-6.012,0-10.925,4.848-10.925,10.925v21.01c0,6.012,4.848,10.925,10.925,10.925
		c6.077,0,10.925-4.848,10.925-10.925v-21.01C95.418,147.038,90.505,142.061,84.428,142.061z"/>
	<path style="fill:#194F82;" d="M84.428,207.547c-6.012,0-10.925,4.848-10.925,10.925v21.01c0,6.012,4.848,10.925,10.925,10.925
		c6.077,0,10.925-4.848,10.925-10.925v-21.01C95.418,212.396,90.505,207.547,84.428,207.547z"/>
</g>
<g>
</g>
<g>
</g>
<g>
</g>
<g>
</g>
<g>
</g>
<g>
</g>
<g>
</g>
<g>
</g>
<g>
</g>
<g>
</g>
<g>
</g>
<g>
</g>
<g>
</g>
<g>
</g>
<g>
</g>
</svg>
