<?xml version="1.0" encoding="iso-8859-1"?>
<!-- Generator: Adobe Illustrator 19.0.0, SVG Export Plug-In . SVG Version: 6.00 Build 0)  -->
<svg version="1.1" id="Layer_1" xmlns="http://www.w3.org/2000/svg" xmlns:xlink="http://www.w3.org/1999/xlink" x="0px" y="0px"
	 viewBox="0 0 512 512" style="enable-background:new 0 0 512 512;" xml:space="preserve">
<path style="fill:#E5E5E5;" d="M273.103,2.111H44.348c-22.104,0-40.086,17.982-40.086,40.086v429.718
	C4.262,494.018,22.244,512,44.348,512h228.755c22.104,0,40.086-17.982,40.086-40.086V42.197
	C313.189,20.093,295.207,2.111,273.103,2.111z"/>
<g>
	<path style="fill:#458FDE;" d="M313.189,42.197c0-22.104-17.982-40.086-40.086-40.086H44.348
		c-22.104,0-40.086,17.982-40.086,40.086v28.862h308.926V42.197z"/>
	<path style="fill:#458FDE;" d="M4.262,419.536v52.379C4.262,494.018,22.244,512,44.348,512h228.755
		c22.104,0,40.086-17.982,40.086-40.086v-52.379H4.262z"/>
</g>
<path style="fill:#CCCCCC;" d="M47.555,471.914V42.197c0-22.104,17.982-40.086,40.086-40.086H44.348
	c-22.104,0-40.086,17.982-40.086,40.086v429.718C4.262,494.018,22.244,512,44.348,512h43.292
	C65.538,512,47.555,494.017,47.555,471.914z"/>
<g>
	<path style="fill:#4F5AA8;" d="M87.641,2.111H44.348c-22.104,0-40.086,17.982-40.086,40.086v28.862h43.292V42.197
		C47.555,20.093,65.538,2.111,87.641,2.111z"/>
	<path style="fill:#4F5AA8;" d="M47.555,471.914v-52.379H4.262v52.379C4.262,494.018,22.244,512,44.348,512h43.292
		C65.538,512,47.555,494.017,47.555,471.914z"/>
	<path style="fill:#4F5AA8;" d="M183.311,438.243h-51.31c-4.429,0-8.017,3.588-8.017,8.017v34.206c0,4.429,3.588,8.017,8.017,8.017
		h51.31c4.429,0,8.017-3.588,8.017-8.017V446.26C191.329,441.831,187.74,438.243,183.311,438.243z"/>
	<path style="fill:#4F5AA8;" d="M166.208,52.352h-17.103c-4.429,0-8.017-3.588-8.017-8.017s3.588-8.017,8.017-8.017h17.103
		c4.429,0,8.017,3.588,8.017,8.017S170.637,52.352,166.208,52.352z"/>
</g>
<path style="fill:#FFD652;" d="M443.066,185.436H141.622c-13.261,0-24.051,10.79-24.051,24.051v185.997
	c0,13.261,10.79,24.051,24.051,24.051h301.444c13.261,0,24.051-10.79,24.051-24.051V209.487
	C467.118,196.225,456.329,185.436,443.066,185.436z"/>
<path style="fill:#FFFFFF;" d="M182.777,351.658h221.273c4.428,0,8.017-3.59,8.017-8.017v-22.448c0-4.428-3.59-8.017-8.017-8.017
	H182.777c-4.428,0-8.017,3.59-8.017,8.017v22.448C174.76,348.068,178.349,351.658,182.777,351.658z"/>
<rect x="117.574" y="246.895" style="fill:#5AC779;" width="349.546" height="42.758"/>
<path style="fill:#FB9D46;" d="M159.795,395.485V209.487c0-13.261,10.79-24.051,24.051-24.051h-42.223
	c-13.261,0-24.051,10.79-24.051,24.051v185.997c0,13.261,10.79,24.051,24.051,24.051h42.223
	C170.585,419.536,159.795,408.746,159.795,395.485z"/>
<rect x="117.574" y="246.895" style="fill:#00A085;" width="42.223" height="42.758"/>
<path style="fill:#FB9D46;" d="M403.515,385.33H300.896c-4.429,0-8.017-3.588-8.017-8.017c0-4.429,3.588-8.017,8.017-8.017h102.619
	c4.429,0,8.017,3.588,8.017,8.017C411.532,381.741,407.944,385.33,403.515,385.33z"/>
<circle style="fill:#FF7452;" cx="360.76" cy="146.948" r="23.517"/>
<g>
	<path style="fill:#FB9D46;" d="M499.72,154.971c-4.429,0-8.017-3.588-8.017-8.017c0-71.116-57.837-129.846-128.929-130.921
		c-4.428-0.067-7.962-3.71-7.895-8.137C354.945,3.51,358.522,0,362.893,0c0.041,0,0.081,0,0.123,0.001
		c38.786,0.586,75.156,16.132,102.411,43.772c27.285,27.672,42.311,64.314,42.311,103.179
		C507.738,151.381,504.149,154.971,499.72,154.971z"/>
	<path style="fill:#FB9D46;" d="M444.135,154.971c-4.429,0-8.017-3.588-8.017-8.017c0-41.19-32.252-74.27-73.425-75.309
		c-4.427-0.112-7.924-3.792-7.813-8.218c0.112-4.427,3.785-7.89,8.218-7.813c23.92,0.604,46.31,10.371,63.048,27.502
		c16.77,17.164,26.006,39.835,26.006,63.838C452.152,151.381,448.564,154.971,444.135,154.971z"/>
</g>
<g>
</g>
<g>
</g>
<g>
</g>
<g>
</g>
<g>
</g>
<g>
</g>
<g>
</g>
<g>
</g>
<g>
</g>
<g>
</g>
<g>
</g>
<g>
</g>
<g>
</g>
<g>
</g>
<g>
</g>
</svg>
