<?xml version="1.0" encoding="iso-8859-1"?>
<!-- Generator: Adobe Illustrator 19.0.0, SVG Export Plug-In . SVG Version: 6.00 Build 0)  -->
<svg version="1.1" id="Capa_1" xmlns="http://www.w3.org/2000/svg" xmlns:xlink="http://www.w3.org/1999/xlink" x="0px" y="0px"
	 viewBox="0 0 511.998 511.998" style="enable-background:new 0 0 511.998 511.998;" xml:space="preserve">
<path style="fill:#92DBEF;" d="M503.916,397.66c0,16.188-13.122,29.311-29.309,29.311H37.393c-16.187,0-29.309-13.124-29.309-29.311
	V114.336c0-16.188,13.122-29.31,29.309-29.31h437.212c16.188,0,29.309,13.123,29.309,29.31v283.325L503.916,397.66L503.916,397.66z"
	/>
<path style="fill:#202121;" d="M474.606,435.056H37.393C16.775,435.056,0,418.279,0,397.66V114.336
	c0-20.62,16.775-37.394,37.393-37.394h437.212c20.619,0,37.393,16.775,37.393,37.394v31.458c0,4.466-3.618,8.084-8.084,8.084
	s-8.084-3.618-8.084-8.084v-31.458c0-11.704-9.522-21.226-21.225-21.226H37.393c-11.704-0.001-21.225,9.521-21.225,21.225v283.324
	c0,11.705,9.521,21.227,21.225,21.227h437.212c11.704,0,21.225-9.522,21.225-21.227V172.023c0-4.466,3.618-8.084,8.084-8.084
	c4.466,0,8.084,3.618,8.084,8.084V397.66C512,418.279,495.225,435.056,474.606,435.056z"/>
<g style="opacity:0.15;">
	<path style="fill:#202121;" d="M28.922,397.66V114.336c0-16.188,13.124-29.31,29.311-29.31h-20.84
		C21.206,85.024,8.084,98.147,8.084,114.335v283.324c0,16.188,13.122,29.311,29.309,29.311h20.84
		C42.047,426.971,28.922,413.847,28.922,397.66z"/>
</g>
<path style="fill:#263B80;" d="M330.324,150.454c-10.865-12.42-31.044-18.626-58.981-18.626H193.73c-4.659,0-9.312,4.66-10.865,9.31
	l-31.043,203.335c0,4.663,3.105,7.761,6.204,7.761h48.118l12.418-76.054v3.104c1.555-4.661,6.207-9.311,10.867-9.311h23.286
	c45.011,0,79.152-18.626,90.019-69.854v-4.657c-1.551,0-1.551,0,0,0C344.288,175.291,341.183,162.87,330.324,150.454"/>
<path style="fill:#232C65;" d="M342.734,200.12v-4.657c0.011-0.154,0.017-0.298,0.027-0.451c-2.76-1.919-5.345-3.256-7.322-4.124
	c-9.425-3.894-19.064-4.628-23.512-4.74l-0.023-0.019h-22.636c0,0,0.019,0.012,0.029,0.018h-47.482
	c-8.072,0.294-10.298,6.804-10.881,9.634l-12.373,80.399v1.908v1.196c1.555-4.661,6.207-9.311,10.867-9.311h23.286
	C297.725,269.974,331.867,251.347,342.734,200.12z"/>
<path style="fill:#139AD6;" d="M357.983,214.702c-3.507-9.677-9.714-15.861-15.221-19.69c-0.011,0.153-0.017,0.296-0.027,0.451
	v4.657c-10.867,51.227-45.009,69.854-90.019,69.854H229.43c-4.661,0-9.312,4.649-10.867,9.311v-1.196
	c-0.177,0.397-0.341,0.797-0.474,1.196l-8.769,53.502l-3.175,19.447h-0.012l-3.562,21.734c0,3.103,1.554,6.201,6.205,6.201h38.691
	c7.785,0,10.229-6.056,10.981-9.319l0.329-2.026v-0.001l7.429-46.081c0,0,0.969-10.865,11.568-10.865h3.96
	c38.804,0,69.849-15.518,77.608-62.082C361.499,236.812,361.391,224.598,357.983,214.702z"/>
<path style="fill:#202121;" d="M365.626,212.069c-2.69-8.073-8.07-15.396-14.543-20.845c0.35-8.409-0.132-16.959-2.597-25.05
	c-2.236-7.338-6.131-13.979-11.046-19.839c-9.082-10.825-22.145-16.699-35.726-19.668c-9.957-2.177-20.197-2.923-30.372-2.923
	H193.73c-4.556,0-8.83,2.098-12.139,5.136c-3.014,2.768-6.085,6.882-6.717,11.037L143.83,343.252
	c-0.64,4.193,1.118,8.931,3.818,12.099c2.587,3.035,6.36,4.966,10.378,4.966h38.589l-2.023,12.342
	c-0.637,3.901,0.874,8.357,3.527,11.232c2.729,2.957,6.684,4.361,10.656,4.361h38.691c9.368,0,17.44-6.79,18.96-16.11l7.759-48.115
	c0.349-2.148,0.987-4.067,3.587-4.067h3.96c20.974,0,42.884-4.511,59.308-18.312c15.565-13.08,23.527-32.473,26.54-52.186
	C369.466,237.12,369.739,224.014,365.626,212.069C365.612,212.028,369.287,222.699,365.626,212.069z M228.939,261.896l9.95-64.654
	c0.628-2.798,2.01-2.966,3.08-3.011h47.329c0.181,0,0.36-0.006,0.539-0.018h21.538c7.923,0.577,16.025,1.397,23.161,5.223
	c0.017,0.031,0.03,0.066,0.049,0.097c-3.056,13.805-8.518,27.325-17.854,38.107c-9.881,11.411-23.727,18.57-38.374,21.684
	c-8.433,1.793-17.023,2.564-25.641,2.564H229.43C229.266,261.89,229.102,261.893,228.939,261.896z M190.728,143.198
	c0.763-1.707,2.361-3.099,3.089-3.288h77.525c12.208,0,24.834,1.051,36.377,5.29c4.317,1.586,8.499,3.666,12.148,6.488
	c3.945,3.052,7.184,7.08,9.688,11.373c3.382,5.801,4.941,12.322,5.34,18.987c-8.893-3.046-17.37-3.808-22.212-3.967
	c-0.258-0.025-0.516-0.038-0.778-0.038h-22.636c-0.181,0-0.36,0.006-0.539,0.018h-46.914c-9.425,0-17.456,7.229-18.871,16.489
	l-12.367,80.359l-11.306,69.239h-39.223L190.728,143.198z M351.366,248.466c-6.204,37.228-28.981,55.326-69.634,55.326h-3.96
	c-13.006,0-18.794,10.58-19.589,17.901l-7.67,47.566c-0.712,2.825-1.952,2.825-3.048,2.825H211.07l2.97-18.118
	c0.031-0.142,0.058-0.286,0.082-0.429l11.517-70.342c0.938-1.704,1.644-4.568,3.875-5.137h23.201c16.43,0,32.877-2.447,48.046-8.943
	c14.867-6.367,27.523-17.5,35.994-31.246c4.909-7.965,8.587-16.618,11.238-25.582C354.128,222.995,353.317,236.733,351.366,248.466
	C345.161,285.694,353.426,236.077,351.366,248.466z"/>
<g>
</g>
<g>
</g>
<g>
</g>
<g>
</g>
<g>
</g>
<g>
</g>
<g>
</g>
<g>
</g>
<g>
</g>
<g>
</g>
<g>
</g>
<g>
</g>
<g>
</g>
<g>
</g>
<g>
</g>
</svg>
