<?xml version="1.0" encoding="iso-8859-1"?>
<!-- Generator: Adobe Illustrator 19.0.0, SVG Export Plug-In . SVG Version: 6.00 Build 0)  -->
<svg version="1.1" id="Layer_1" xmlns="http://www.w3.org/2000/svg" xmlns:xlink="http://www.w3.org/1999/xlink" x="0px" y="0px"
	 viewBox="0 0 392.598 392.598" style="enable-background:new 0 0 392.598 392.598;" xml:space="preserve">
<path style="fill:#FFC10D;" d="M86.885,72.663c13.964,0,25.406-11.442,25.406-25.406s-11.442-25.406-25.406-25.406
	S61.479,33.293,61.479,47.257S72.921,72.663,86.885,72.663z"/>
<g>
	<path style="fill:#56ACE0;" d="M140.929,145.519c-7.37-4.008-15.127-7.176-23.337-9.438l-20.428,57.341
		c-3.426,9.632-17.067,9.632-20.558,0l-20.558-57.341c-8.21,2.263-15.903,5.43-23.337,9.438
		c-6.788,3.685-11.055,11.119-11.055,19.329v48.42H151.79v-48.42h0.129C151.984,156.638,147.717,149.204,140.929,145.519z"/>
	<path style="fill:#56ACE0;" d="M305.778,179.265c-13.964,0-25.406,11.442-25.406,25.406c0,13.964,11.378,25.406,25.406,25.406
		c13.964,0,25.406-11.442,25.406-25.406C331.184,190.707,319.741,179.265,305.778,179.265z"/>
</g>
<path style="fill:#FFC10D;" d="M370.812,322.327c0-8.21-4.267-15.58-11.055-19.329c-7.37-4.008-15.127-7.176-23.337-9.438
	l-20.299,57.277c-3.426,9.632-17.067,9.632-20.558,0l-20.558-57.341c-8.21,2.263-15.903,5.43-23.337,9.438
	c-6.788,3.685-11.055,11.119-11.055,19.329v48.42h130.133v-48.356H370.812z"/>
<g>
	<path style="fill:#194F82;" d="M86.885,94.449c26.053,0,47.192-21.204,47.192-47.192c0-26.053-21.204-47.192-47.192-47.192
		S39.693,21.269,39.693,47.257S60.897,94.449,86.885,94.449z M86.885,21.786c13.964,0,25.406,11.442,25.406,25.406
		s-11.442,25.406-25.406,25.406S61.479,61.22,61.479,47.192S72.921,21.786,86.885,21.786z"/>
	<path style="fill:#194F82;" d="M173.77,224.194v-59.345c0-16.226-8.598-30.966-22.432-38.465
		c-11.96-6.594-25.018-11.184-38.659-13.834c-5.236-1.034-10.537,2.004-12.347,7.046l-13.446,37.689l-13.446-37.689
		c-1.745-5.107-7.046-8.016-12.347-7.046c-13.705,2.651-26.634,7.24-38.659,13.834C8.598,133.883,0,148.622,0,164.849v59.345
		c0,6.012,4.848,10.925,10.925,10.925h151.919C168.921,235.055,173.77,230.206,173.77,224.194z M152.113,213.269H21.851v-48.42
		c0-8.21,4.267-15.58,11.055-19.329c7.37-4.008,15.127-7.176,23.337-9.438L76.8,193.422c3.491,9.632,17.067,9.632,20.558,0
		l20.428-57.341c8.21,2.263,15.903,5.43,23.337,9.438c6.788,3.685,11.055,11.119,11.055,19.329v48.42H152.113z"/>
	<path style="fill:#194F82;" d="M370.166,283.798c-11.96-6.594-25.018-11.184-38.659-13.834c-5.236-1.034-10.537,2.004-12.348,7.046
		l-13.446,37.689l-13.446-37.689c-1.745-5.107-7.046-8.016-12.347-7.046c-13.705,2.651-26.634,7.24-38.659,13.834
		c-13.834,7.499-22.432,22.238-22.432,38.465v59.345c0,6.012,4.848,10.925,10.925,10.925h151.919
		c6.012,0,10.925-4.848,10.925-10.925v-59.281C392.598,306.101,384,291.297,370.166,283.798z M370.941,370.747H240.679v-48.42
		c0-8.21,4.267-15.58,11.055-19.329c7.37-4.008,15.127-7.176,23.337-9.438l20.558,57.341c3.491,9.632,17.067,9.632,20.558,0
		l20.428-57.341c8.21,2.263,15.903,5.43,23.337,9.438c6.788,3.685,11.055,11.119,11.055,19.329v48.42H370.941z"/>
	<path style="fill:#194F82;" d="M258.521,204.671c0,26.053,21.204,47.192,47.192,47.192c26.053,0,47.192-21.204,47.192-47.192
		c0-26.053-21.204-47.192-47.192-47.192S258.521,178.618,258.521,204.671z M331.184,204.671c0,13.964-11.442,25.406-25.406,25.406
		c-13.964,0-25.406-11.442-25.406-25.406c0-13.964,11.378-25.406,25.406-25.406C319.741,179.265,331.184,190.707,331.184,204.671z"
		/>
	<path style="fill:#194F82;" d="M181.204,315.087c-9.956,6.788-26.182,9.891-37.43,7.952c-17.842-2.457-33.099-12.606-42.085-27.798
		l-0.259-0.453l17.713,4.461c5.883,1.487,11.766-2.069,13.188-7.887c1.487-5.883-2.069-11.766-7.887-13.188l-43.766-11.055
		c-5.883-1.487-11.766,2.069-13.188,7.887l-11.055,43.766c-1.487,5.883,2.069,11.766,7.887,13.188
		c5.883,1.487,11.766-2.069,13.188-7.887l4.784-18.747c10.925,17.778,27.669,31.612,47.774,37.172
		c35.556,9.051,58.246-6.335,61.802-8.339c5.301-3.038,7.176-9.826,4.008-15.063C192.84,313.923,186.376,312.242,181.204,315.087z"
		/>
	<path style="fill:#194F82;" d="M248.889,69.301c17.842,2.457,33.099,12.606,42.085,27.798l0.259,0.453l-17.713-4.461
		c-5.883-1.487-11.766,2.069-13.188,7.887c-1.487,5.883,2.069,11.766,7.887,13.188l43.766,11.055
		c5.883,1.487,11.766-2.069,13.188-7.887l11.055-43.766c1.487-5.883-2.069-11.766-7.887-13.188
		c-5.883-1.487-11.766,2.069-13.188,7.887l-4.784,18.747c-10.925-17.778-27.669-31.612-47.774-37.172
		c-35.556-9.051-58.246,6.335-61.802,8.339c-5.301,3.038-7.176,9.826-4.008,15.063c3.038,5.107,9.568,6.788,14.675,3.943
		C221.414,70.465,237.64,67.362,248.889,69.301z"/>
</g>
<g>
</g>
<g>
</g>
<g>
</g>
<g>
</g>
<g>
</g>
<g>
</g>
<g>
</g>
<g>
</g>
<g>
</g>
<g>
</g>
<g>
</g>
<g>
</g>
<g>
</g>
<g>
</g>
<g>
</g>
</svg>
